HIERARCHY
ROOT Hips
{
	OFFSET -14.64140 90.27770 -84.91600
	CHANNELS 6 Xposition Yposition Zposition Zrotation Xrotation Yrotation
	JOINT Spine
	{
		OFFSET 0.00000 13.20850 -1.60436
		CHANNELS 3 Zrotation Xrotation Yrotation
		JOINT Spine1
		{
			OFFSET 0.00000 8.61716 0.00000
			CHANNELS 3 Zrotation Xrotation Yrotation
			JOINT Spine2
			{
				OFFSET 0.00000 8.61717 0.00000
				CHANNELS 3 Zrotation Xrotation Yrotation
				JOINT Spine3
				{
					OFFSET 0.00000 8.61717 0.00000
					CHANNELS 3 Zrotation Xrotation Yrotation
					JOINT Neck
					{
						OFFSET 0.00000 11.07920 1.10792
						CHANNELS 3 Zrotation Xrotation Yrotation
						JOINT Neck1
						{
							OFFSET 0.00000 7.08032 0.00000
							CHANNELS 3 Zrotation Xrotation Yrotation
							JOINT Head
							{
								OFFSET 0.00000 7.08031 0.00000
								CHANNELS 3 Zrotation Xrotation Yrotation
								End site
								{
									OFFSET 0.00000 0.00000 0.00000
								}
							}
						}
					}
					JOINT RightShoulder
					{
						OFFSET -0.01000 7.91373 5.19711
						CHANNELS 3 Zrotation Xrotation Yrotation
						JOINT RightArm
						{
							OFFSET -18.41580 0.00000 0.00000
							CHANNELS 3 Zrotation Xrotation Yrotation
							JOINT RightForeArm
							{
								OFFSET -29.11090 0.00000 0.00000
								CHANNELS 3 Zrotation Xrotation Yrotation
								JOINT RightHand
								{
									OFFSET -24.65040 0.00000 0.00000
									CHANNELS 3 Zrotation Xrotation Yrotation
									JOINT RightHandThumb1
									{
										OFFSET -5.35114 -0.85590 3.97906
										CHANNELS 3 Zrotation Xrotation Yrotation
										JOINT RightHandThumb2
										{
											OFFSET -4.52789 0.00000 0.00000
											CHANNELS 3 Zrotation Xrotation Yrotation
											JOINT RightHandThumb3
											{
												OFFSET -2.46976 0.00000 0.00000
												CHANNELS 3 Zrotation Xrotation Yrotation
												End site
												{
													OFFSET 0.00000 0.00000 0.00000
												}
											}
										}
									}
									JOINT RightHandIndex1
									{
										OFFSET -14.26970 0.00000 2.88139
										CHANNELS 3 Zrotation Xrotation Yrotation
										JOINT RightHandIndex2
										{
											OFFSET -5.48836 0.00000 0.00000
											CHANNELS 3 Zrotation Xrotation Yrotation
											JOINT RightHandIndex3
											{
												OFFSET -3.01859 0.00000 0.00000
												CHANNELS 3 Zrotation Xrotation Yrotation
												End site
												{
													OFFSET 0.00000 0.00000 0.00000
												}
											}
										}
									}
									JOINT RightHandMiddle1
									{
										OFFSET -14.26970 0.00000 -0.09147
										CHANNELS 3 Zrotation Xrotation Yrotation
										JOINT RightHandMiddle2
										{
											OFFSET -6.17441 0.00000 0.00000
											CHANNELS 3 Zrotation Xrotation Yrotation
											JOINT RightHandMiddle3
											{
												OFFSET -3.56743 0.00000 0.00000
												CHANNELS 3 Zrotation Xrotation Yrotation
												End site
												{
													OFFSET 0.00000 0.00000 0.00000
												}
											}
										}
									}
									JOINT RightHandRing1
									{
										OFFSET -12.69180 0.00000 -3.06433
										CHANNELS 3 Zrotation Xrotation Yrotation
										JOINT RightHandRing2
										{
											OFFSET -5.62556 0.00000 0.00000
											CHANNELS 3 Zrotation Xrotation Yrotation
											JOINT RightHandRing3
											{
												OFFSET -3.56744 0.00000 0.00000
												CHANNELS 3 Zrotation Xrotation Yrotation
												End site
												{
													OFFSET 0.00000 0.00000 0.00000
												}
											}
										}
									}
									JOINT RightHandPinky1
									{
										OFFSET -11.11390 0.00000 -6.03719
										CHANNELS 3 Zrotation Xrotation Yrotation
										JOINT RightHandPinky2
										{
											OFFSET -4.52789 0.00000 0.00000
											CHANNELS 3 Zrotation Xrotation Yrotation
											JOINT RightHandPinky3
											{
												OFFSET -2.46976 0.00000 0.00000
												CHANNELS 3 Zrotation Xrotation Yrotation
												End site
												{
													OFFSET 0.00000 0.00000 0.00000
												}
											}
										}
									}
								}
							}
						}
					}
					JOINT LeftShoulder
					{
						OFFSET 0.01000 7.91373 5.19711
						CHANNELS 3 Zrotation Xrotation Yrotation
						JOINT LeftArm
						{
							OFFSET 18.41580 0.00000 0.00000
							CHANNELS 3 Zrotation Xrotation Yrotation
							JOINT LeftForeArm
							{
								OFFSET 29.11090 0.00000 0.00000
								CHANNELS 3 Zrotation Xrotation Yrotation
								JOINT LeftHand
								{
									OFFSET 24.65040 0.00000 0.00000
									CHANNELS 3 Zrotation Xrotation Yrotation
									JOINT LeftHandThumb1
									{
										OFFSET 5.35114 -0.85590 3.97906
										CHANNELS 3 Zrotation Xrotation Yrotation
										JOINT LeftHandThumb2
										{
											OFFSET 4.52789 0.00000 0.00000
											CHANNELS 3 Zrotation Xrotation Yrotation
											JOINT LeftHandThumb3
											{
												OFFSET 2.46977 0.00000 0.00000
												CHANNELS 3 Zrotation Xrotation Yrotation
												End site
												{
													OFFSET 0.00000 0.00000 0.00000
												}
											}
										}
									}
									JOINT LeftHandIndex1
									{
										OFFSET 14.26970 0.00000 2.88139
										CHANNELS 3 Zrotation Xrotation Yrotation
										JOINT LeftHandIndex2
										{
											OFFSET 5.48836 0.00000 0.00000
											CHANNELS 3 Zrotation Xrotation Yrotation
											JOINT LeftHandIndex3
											{
												OFFSET 3.01859 0.00000 0.00000
												CHANNELS 3 Zrotation Xrotation Yrotation
												End site
												{
													OFFSET 0.00000 0.00000 0.00000
												}
											}
										}
									}
									JOINT LeftHandMiddle1
									{
										OFFSET 14.26970 0.00000 -0.09147
										CHANNELS 3 Zrotation Xrotation Yrotation
										JOINT LeftHandMiddle2
										{
											OFFSET 6.17440 0.00000 0.00000
											CHANNELS 3 Zrotation Xrotation Yrotation
											JOINT LeftHandMiddle3
											{
												OFFSET 3.56744 0.00000 0.00000
												CHANNELS 3 Zrotation Xrotation Yrotation
												End site
												{
													OFFSET 0.00000 0.00000 0.00000
												}
											}
										}
									}
									JOINT LeftHandRing1
									{
										OFFSET 12.69180 0.00000 -3.06433
										CHANNELS 3 Zrotation Xrotation Yrotation
										JOINT LeftHandRing2
										{
											OFFSET 5.62556 0.00000 0.00000
											CHANNELS 3 Zrotation Xrotation Yrotation
											JOINT LeftHandRing3
											{
												OFFSET 3.56744 0.00000 0.00000
												CHANNELS 3 Zrotation Xrotation Yrotation
												End site
												{
													OFFSET 0.00000 0.00000 0.00000
												}
											}
										}
									}
									JOINT LeftHandPinky1
									{
										OFFSET 11.11390 0.00000 -6.03719
										CHANNELS 3 Zrotation Xrotation Yrotation
										JOINT LeftHandPinky2
										{
											OFFSET 4.52789 0.00000 0.00000
											CHANNELS 3 Zrotation Xrotation Yrotation
											JOINT LeftHandPinky3
											{
												OFFSET 2.46976 0.00000 0.00000
												CHANNELS 3 Zrotation Xrotation Yrotation
												End site
												{
													OFFSET 0.00000 0.00000 0.00000
												}
											}
										}
									}
								}
							}
						}
					}
					JOINT pCube4
					{
						OFFSET 0.00000 10.91090 1.10792
						CHANNELS 3 Zrotation Xrotation Yrotation
						End site
						{
							OFFSET 0.00000 0.00000 0.00000
						}
					}
				}
			}
		}
	}
	JOINT RightUpLeg
	{
		OFFSET -9.98441 0.00000 0.00000
		CHANNELS 3 Zrotation Xrotation Yrotation
		JOINT RightLeg
		{
			OFFSET 0.00000 -42.11790 0.00000
			CHANNELS 3 Zrotation Xrotation Yrotation
			JOINT RightFoot
			{
				OFFSET 0.00000 -45.00020 -0.00001
				CHANNELS 3 Zrotation Xrotation Yrotation
				JOINT RightForeFoot
				{
					OFFSET 0.00000 -3.74820 0.00000
					CHANNELS 3 Zrotation Xrotation Yrotation
					JOINT RightToeBase
					{
						OFFSET 0.00000 0.06325 14.43120
						CHANNELS 3 Zrotation Xrotation Yrotation
						End site
						{
							OFFSET 0.00000 0.00000 0.00000
						}
					}
				}
			}
		}
	}
	JOINT LeftUpLeg
	{
		OFFSET 9.98441 0.00000 0.00000
		CHANNELS 3 Zrotation Xrotation Yrotation
		JOINT LeftLeg
		{
			OFFSET 0.00000 -42.11800 0.00000
			CHANNELS 3 Zrotation Xrotation Yrotation
			JOINT LeftFoot
			{
				OFFSET 0.00000 -45.00070 0.00000
				CHANNELS 3 Zrotation Xrotation Yrotation
				JOINT LeftForeFoot
				{
					OFFSET 0.00000 -3.74824 0.00000
					CHANNELS 3 Zrotation Xrotation Yrotation
					JOINT LeftToeBase
					{
						OFFSET 0.00000 0.06325 14.43110
						CHANNELS 3 Zrotation Xrotation Yrotation
						End site
						{
							OFFSET 0.00000 0.00000 0.00000
						}
					}
				}
			}
		}
	}
}
MOTION
Frames: 4
Frame Time: 0.050000
0.03709770345243232 0.033043302668531026 -0.028548904293112628 -0.03509755792296604 0.015975669393906888 0.023621989993910856 5.170204042814357 3.173220340184132 -2.2009716450792096 -0.9035291672676604 3.4280582917806606 0.3739621753648333 -0.7662270127030782 -0.9387701711363428 0.7896181748460955 -0.463568853514125 -0.261125421317973 -0.32145771593651523 0.24929438369079882 11.323648674868817 -1.5809526295576297 0.3275694129903275 -0.7323831705638119 -3.975372498830414 1.0225072447845425 -17.37184270225782 -0.4084322292840221 -11.808977717698832 4.058693379282024 -16.496706675749113 80.7513147180126 -1.6766972727776026 13.938937949588066 23.425091829385586 1.455029770414818 83.36201059674549 9.72362901332838 -0.4552547896890375 -5.313136827797969 4.5114324029885395 -0.10323768752700561 -1.5757522830884456 0.013818838601021918 0.01283556356166224 -56.21601082250902 0.00307593391385781 -0.03547086176838073 -56.21553310667353 -38.78503399075526 0.0003113199969834023 0.009610360276721913 0.043361201208613795 0.04090295177739852 -0.003205965505885091 0.028997963869063323 0.005502153005789051 0.014936853476168103 -36.6734615130745 0.01356832675323117 -0.04056682664012972 -0.02646621361869912 -0.019452859366666405 -9.726708411381589e-05 -0.020254947273729555 -0.02728061067326896 0.004268470999636813 -19.73761117070103 0.03174830222928686 -0.04351694133985853 0.018956399128824897 -0.011482873552459078 -0.02985496158909411 -0.03870055527231087 -0.025552435182467834 0.04777438853253344 24.05567396569426 0.04582589944470289 -0.035901725425766653 28.834002678724485 0.016837822103180144 -0.0002120472389357469 28.859732778047125 0.049619823935028035 0.02921655934648212 10.780266039103935 2.6117104840238525 13.43158623936091 -78.98863130911509 17.676898401198702 -13.285394541842331 -69.46260013334808 11.834412057238284 -95.31340527916063 -8.10623665987644 -9.323946794217253 5.964542903503435 -0.44516024407976734 0.0958527134290164 -8.090204751850093 0.011136488853452725 0.009237783524627272 44.53175654161745 0.007295118132835174 0.03823065517495888 44.59115208884614 12.458836247065548 0.007607173115226549 -0.014643462488268345 0.021874003658343612 -0.02498396241364117 -0.010317712317290298 -0.026840129520629825 -0.011157134579979995 0.048175653065840915 11.082408984703745 -0.008193159274494682 0.01908799829914458 0.04549080306026715 -0.0023896328110347646 -0.020131171659634513 -0.02246775672562928 0.028007386119504735 -0.023407332708769758 4.80495944211229 0.014425202660723422 0.017459746354792482 0.013757850152698524 -0.0255107358276694 -0.04044040836195212 -0.007042420457000823 0.03854638064579149 -0.014082770407333288 -5.617227163029968 0.017626965480688195 -0.036798493405458946 -6.761166211529068 0.02980359648011414 -0.002603909337411184 -6.719749746913558 0.00016927505430415306 0.03874243655268247 -0.03716248107291493 0.027584366177480186 0.0020536559480053393 8.023613804026372 3.5061516824019736 -19.26872709781693 0.01362086658200399 10.402038470745778 -0.006122854573934088 -5.664450599421374 -15.709507606425454 3.2258978645573273 -0.021017394799106855 0.0403023579585664 0.035933448381301844 -0.01474277237343843 4.717028977704381 -0.002335197342423365 12.462011508755541 -8.251359578293401 6.904068289067782 0.0016270959584643876 46.35209256770901 -0.024554028401400533 -4.296702664562626 -14.747056888700573 -3.855767788221963 0.014073626888032511 -0.01347505932784226 0.02551318476128278 0.004845106452505522 -10.727601215625164 0.048735887761743875 
0.044715241381329 0.018628380240555475 -0.0242434135672727 -0.02240159196817102 0.011682825598695963 0.003424496370550742 5.158699598952656 3.257043425458058 -2.2163603652211528 -0.8943646057913331 3.3792698909502277 0.4196451196318507 -0.7558894544475199 -0.8694857933641063 0.7007834566515067 -0.45524610706026714 -0.2747712005465524 -0.2782663853091306 0.3010857016410903 11.20172538436394 -1.6836955664263944 0.3660864363083447 -0.7466943035148902 -4.146673566970412 1.094015083920866 -17.435667075622757 -0.4492541564622556 -11.710309125954673 4.023135872781777 -16.60776920026612 81.11724153070227 -2.1637707228981102 13.05782669703043 23.56251871935636 1.5755511943203055 82.27703129401922 9.825350023499633 -0.4091136359714598 -5.514422432910637 4.5144761916773595 -0.11642578017412872 -1.641497401960989 0.016761362353979393 0.04405534549332617 -56.2687136146816 0.03501375822480161 0.023114347878870057 -56.249082478318904 -38.734365365732565 0.032784813217085484 0.02708089305408778 -0.03271149938821477 -0.04260639466563595 -0.04841825580149392 0.011926017250689522 -0.005716857019240774 -0.03351063930321287 -36.67878141898833 0.03621290451462319 -0.011003277211927408 -0.014382277293458492 -0.032496705160615404 0.00835814928735976 0.02618557419973051 -0.016498421949862743 0.020581990383110888 -19.766585420186615 0.020815990126203106 0.0038441096950920517 -0.011167594087367201 -0.007418254108488399 -0.016453458975266108 0.012719010553832556 0.024791182361787133 0.009582420255559367 24.04059202761188 0.03471144181602467 -0.002073811383378686 28.82753664198086 0.023413143889288952 -0.01874324279356749 28.851666543548244 -0.04273555654166634 0.0024330336015642496 10.678851404627975 2.5809113451116366 13.455310973350887 -79.15219469182125 17.255413660783276 -12.931883595397114 -71.72667424848991 11.937261245555206 -96.06953043955795 -8.046623937404656 -9.780019423299612 6.173598088632357 -0.5027713166990047 0.046294296911403715 -8.10756007187174 -0.006731867136891136 -0.003641347892413348 44.576778030411006 0.034165969578034236 -0.034467285440054674 44.574972019137086 12.43658672760521 0.03642681198271822 -0.003232290522581013 0.03515255086725776 0.033034947646213515 0.014739033579573084 -0.04200905630043937 -0.022778789695456856 0.03455118681222794 11.119577272202166 -0.002994884599701746 -0.01868156202699039 -0.035474966111303234 -0.04810743743967773 0.049628869795302025 -0.00421506269005712 0.03543394898613944 -0.0032241526503135067 4.737518851196192 0.022834899977233876 -0.025145475449120772 -0.04114808410788659 -0.02841155995678507 -0.0009267005796677096 0.028790296575457022 0.019426064980269914 -0.02762150785023553 -5.641704032095218 -0.014029100093182157 -0.004848119738454895 -6.729704553034825 -0.016168259763914946 0.042652310051525914 -6.739192232230762 -0.04916392209671809 0.02669560107544329 0.028133937698469454 0.012354177005718585 0.021697324081837787 8.01633809728712 3.4572120423628614 -19.257167391266258 -0.015131549258318744 10.363368161561015 -0.025008620477769205 -5.598071582465421 -15.660360147645552 3.202832039466876 -0.018221881348447697 -0.013714812331111288 -0.01320742174544818 0.008576260340540064 4.6753143346307136 -0.03733550220572781 12.425484472933288 -8.25671942708372 6.8724987644884905 -0.020518206858801923 46.41735206279246 -0.042740718318542044 -4.314151581950998 -14.788955925420034 -3.826714199693059 -0.01442980422648046 -0.0032067683965604893 -0.006763685624571748 0.013585135206298032 -10.786272483207876 -0.007400291325493257 
-0.006508333841477722 0.017566522477838926 0.002039071069940799 -0.024513662758305913 -0.03064322109676922 0.02332946537147601 5.208233708669536 3.1772601538311656 -2.2401366379279803 -0.9092819256186753 3.3440076097196783 0.4686428445616826 -0.7352476739940752 -0.89447355152654 0.6555089675302684 -0.40094944244451347 -0.26098813388782627 -0.33528257042143 0.28724125848912263 11.151641377818317 -1.6952939392541118 0.31772766701378763 -0.8063841055587057 -4.152050485520801 1.0751670347090074 -17.482123188783667 -0.427340559473338 -11.450683097546031 3.944304183983649 -16.792661491901676 81.33556156834099 -2.073647428700269 11.682149694335948 23.590794007426453 1.5884397241448507 81.86954967898082 10.037727638311683 -0.48988704517489307 -5.7136197583631425 4.501097252800666 -0.15391661441026416 -1.5912059436323274 -0.03506265936550413 -0.008102141411740621 -56.24903499076695 0.029130448842315162 0.026774997801388596 -56.24285980060038 -38.801481736886885 0.004206873595866165 -0.019526361773825416 -0.007723042359314044 0.01345820397924183 -0.044078091836817566 -0.023954950383825283 -0.014859576613197046 -0.03011203247004863 -36.72306243144406 -0.0048449433093749215 0.03566592067532807 0.035548238081432426 0.01310766028928035 0.035390903737143396 -0.02022505468758869 -0.045664465278789444 0.017041378735042356 -19.773523081760576 -0.022219339865484775 0.00973658667196484 -0.027312044651146648 0.024889823867353562 0.002982538949301265 0.02816843760474452 -0.005818768081399059 -0.04616561643272631 24.066570778340285 0.008040117655560942 -0.026694247292730715 28.877976768725137 0.00849092502985482 0.018090642657049055 28.91308402188689 0.01388185648071426 -0.03439211939775967 10.660118368119067 2.5687008193312573 13.546147726927964 -79.32047313099103 17.134866194835233 -12.338102707841088 -74.0096981649592 11.670261566319365 -97.32126225681522 -8.572231179230632 -10.45451355554233 6.572300135424427 -0.4279612179597819 0.03943818771073586 -8.09399981633436 -0.021630298327829426 0.021081550596499053 44.60304190304898 -0.03831671817410385 0.03431004792381059 44.52816525962379 12.504872560376398 0.01204039759600163 0.041168538943504654 0.04628701387370939 0.04713313859112058 -0.0485801389508457 -0.04795731045690285 0.03014799908764155 0.03689983584360211 11.064375348657906 0.0004483281192259194 0.01621292967935866 -0.00904152816133955 -0.04981572419957513 0.041180125379867774 0.017332465006136166 0.03428321619365707 -0.034769497211889516 4.798931134481352 -0.012026401060759301 -0.007301010997445107 -0.00325001986133719 0.04625987358492447 -0.031963788258556565 0.035889115236197915 -0.007088775413772105 -0.04191211721735854 -5.551860681553832 0.04028521078237312 0.013472661673710404 -6.733874287192025 0.024498195180022594 -0.0248805365409335 -6.688349586878758 -0.04296751126616399 -0.01850940704291389 -0.04625790713874528 -0.04465061589129478 0.007988195583549209 8.002613955311977 3.531552280353618 -19.256865672902933 -0.006929985782679375 10.408878391484857 0.004954626352638984 -5.606095531138088 -15.66913805576145 3.1846276846715744 -0.04174419060947443 -0.01585843497924819 -0.009277113538050075 0.04160908436866065 4.679818518868034 -0.046444509036083985 12.437873927464594 -8.267905563342596 6.890956249854756 -0.011934325812266377 46.37351758843096 0.012279074662820522 -4.336709548655392 -14.699642800727199 -3.8432542505349585 -0.030680232020143135 -0.004810119497617261 0.003256910652345296 0.019182329714637517 -10.787867790484345 -0.01257432689841378 
0.014576591522376576 0.04065832139299977 -0.0307328594651694 -0.028705072212240924 -0.019376543712898632 -0.048878819561798924 5.3034698432794265 3.0371533762141874 -2.3081785721212866 -0.927287986962759 3.437170815399292 0.3892118572751771 -0.7485421462964386 -0.86101208630049 0.7172819616478419 -0.3719773066171579 -0.3212993235645897 -0.32238190926268084 0.24996430727006924 11.158630110911291 -1.7151699686539332 0.3152356946494573 -0.7458119684130353 -4.0022681182534265 1.1112575469846373 -17.396424159177418 -0.43996298810671564 -11.330304003262937 3.864263050745898 -17.124195668894362 81.97979721579178 -1.9841748857291939 9.656338056827442 22.99477940334652 1.3188080967360543 81.7825978872247 9.674685297110818 -0.47055575183053366 -5.707096012663155 4.522703825904322 -0.14250123942411808 -1.6219590474871202 -0.0006836255795646307 0.006188501446520095 -56.251923378038256 0.017511249514161026 0.01712485876625282 -56.2045036094701 -38.79656311108238 0.030482485441576293 -0.023077995992769627 -0.043488395514535025 0.029846789820001045 0.019132643667202836 -0.049305923695794215 0.04489434336302684 -0.03148501699149186 -36.71527383951117 0.021178538507379826 -0.030366791030629198 0.0271135715398385 0.029032772302101266 0.03273191816704633 0.00021278504911338228 -0.03823243738122471 -0.04016991238971058 -19.768708318347855 0.0001727373922856411 0.019341591143808016 0.016389804709730754 0.025359089055055482 -0.004462804962468407 -0.01519782332414692 -0.011296506190855546 0.01586208912165387 24.048537997391488 0.026830014334953783 -0.005586251875395346 28.88367961231965 -0.03220185145536425 0.010016137483912219 28.86547910888555 -0.011071501186502799 0.011644417993841527 10.630206599976788 2.49257972869073 13.836309700182571 -79.80576083033165 16.312169539090004 -11.2926070341472 -76.77212000063909 11.12589711034599 -98.6686360507956 -8.722966070159087 -11.222671598322714 6.72487907796768 -0.5221018862784872 0.0560475043804429 -8.105970284420334 -0.009809204567245605 -0.026582522888386795 44.53683775173538 0.03371896053416386 -0.004372167855033466 44.5358101024622 12.451782571277146 -0.028700473874227764 -0.016303457704306863 -0.025007807873629703 0.015502487790923605 0.02679323585321725 0.033138956010979055 -0.00983594293707562 -0.02117176995801682 11.146673931968008 0.00661364669573487 -0.012024808349555742 0.025238608240718885 0.00425869727642262 0.005637849513374715 0.025850889996689875 0.038918104074876 0.024610672107437292 4.807055776705534 0.02849806086459096 -0.03662323371266984 -0.018560708965576357 0.04385385904278913 0.0165753715945211 -0.01874442171415702 -0.01979038419399226 -0.014746871156739507 -5.579085750517048 0.0225867302765587 0.04591610490755404 -6.7245458207606 -0.007298460405632698 0.0038309302747978557 -6.7232710008557275 -0.011383171152905951 -0.017628786256486728 -0.011730550299541372 0.027328205552829596 -0.008669974443232926 8.036560509721701 3.4935877935493798 -19.2369733505594 -0.004611680925553231 10.384970970913551 0.0161499756040578 -5.574198394490565 -15.676173183689231 3.1819725515912363 -0.04924546838154948 0.04960098906912506 0.03824732272945177 -0.040443482431678196 4.67733966859483 -0.020543640082622813 12.468189479027041 -8.272845676221667 6.8378380258460565 0.018784485437363396 46.396980056211056 0.026789761180628927 -4.317671415852932 -14.767801514657668 -3.8701920941887904 0.04357471169659909 -0.003387179277105401 -0.01960571604373509 -0.03441760626665685 -10.764912838984436 -0.0009853909661516115 
